<?xml version="1.0" encoding="iso-8859-1"?>
<!-- Generator: Adobe Illustrator 19.0.0, SVG Export Plug-In . SVG Version: 6.00 Build 0)  -->
<svg version="1.1" id="Layer_1" xmlns="http://www.w3.org/2000/svg" xmlns:xlink="http://www.w3.org/1999/xlink" x="0px" y="0px"
	 viewBox="0 0 512 512" style="enable-background:new 0 0 512 512;" xml:space="preserve">
<path style="fill:#BFA993;" d="M431.158,404.211c0,22.323,18.098,40.421,40.421,40.421c22.323,0,40.421-18.098,40.421-40.421
	c0-84.087-15.846-158.178-80.842-201.686v-0.419c44.648,0,80.842-36.194,80.842-80.842C512,54.291,389.943,0,256,0
	S0,54.291,0,121.263c0,44.648,36.194,80.842,80.842,80.842v0.419C15.845,246.032,0,320.124,0,404.211
	c0,22.323,18.098,40.421,40.421,40.421s40.421-18.098,40.421-40.421"/>
<path style="fill:#B29A7E;" d="M431.158,202.524v-0.419c44.648,0,80.842-36.194,80.842-80.842C512,54.291,389.943,0,256,0v404.211
	h175.158c0,22.323,18.098,40.421,40.421,40.421c22.323,0,40.421-18.098,40.421-40.421C512,320.124,496.154,246.032,431.158,202.524z
	"/>
<path style="fill:#EBE4DD;" d="M256,242.526c-89.295,0-175.158,72.389-175.158,161.684c0,59.531,48.26,107.789,107.789,107.789
	h134.737c59.531,0,107.789-48.259,107.789-107.789C431.158,314.915,345.296,242.526,256,242.526z"/>
<path style="fill:#58575D;" d="M168.421,168.421h-0.003c-14.857,0-26.945-12.089-26.945-26.947
	c0.005-14.861,12.094-26.947,26.947-26.947c14.859,0,26.947,12.089,26.947,26.947S183.28,168.421,168.421,168.421z"/>
<path style="fill:#454449;" d="M343.579,168.421h-0.003c-14.857,0-26.945-12.089-26.945-26.947
	c0.005-14.861,12.094-26.947,26.947-26.947c14.859,0,26.947,12.089,26.947,26.947S358.438,168.421,343.579,168.421z"/>
<path style="fill:#D8CCBC;" d="M256,242.526L256,242.526L255.999,512h67.37c59.531,0,107.789-48.259,107.789-107.789
	C431.158,314.915,345.296,242.526,256,242.526z"/>
<path style="fill:#58575D;" d="M299.116,181.895c-7.082,21.491-26.058,45.181-43.116,45.542
	c-17.058-0.362-36.034-24.053-43.116-45.542c-3.27-10.98,5.183-20.066,18.863-20.211c16.168,0,32.337,0,48.505,0
	C293.932,161.828,302.387,170.914,299.116,181.895z"/>
<path style="fill:#454449;" d="M280.253,161.684c-8.084,0-16.168,0-24.253,0v65.753c17.058-0.362,36.034-24.053,43.116-45.542
	C302.387,170.914,293.932,161.828,280.253,161.684z"/>
<path style="fill:#B29A7E;" d="M0,121.263c0,44.648,36.194,80.842,80.842,80.842V34.123C31.846,56.169,0,87.06,0,121.263z"/>
<path style="fill:#A58868;" d="M512,121.263c0-34.203-31.846-65.094-80.842-87.14v167.982C475.806,202.105,512,165.911,512,121.263z
	"/>
<g>
</g>
<g>
</g>
<g>
</g>
<g>
</g>
<g>
</g>
<g>
</g>
<g>
</g>
<g>
</g>
<g>
</g>
<g>
</g>
<g>
</g>
<g>
</g>
<g>
</g>
<g>
</g>
<g>
</g>
</svg>
